<svg width="180" height="168" viewBox="0 0 180 168" fill="none" xmlns="http://www.w3.org/2000/svg">
<g filter="url(#filter0_d_631_7)">
<path d="M75.0975 161.388C72.7777 161.38 70.4681 161.08 68.2228 160.493L67.7803 160.369L67.3698 160.162C52.5277 152.668 40.0063 142.769 30.1533 130.74C21.997 120.724 15.638 109.353 11.3623 97.1359C6.24909 82.5097 3.78916 67.0767 4.09989 51.5736C4.10616 51.2482 4.11146 50.9969 4.11146 50.8238C4.11146 43.2877 8.2651 36.6752 14.6933 33.9778C19.6132 31.9133 64.283 13.4353 67.5106 12.1002C73.5888 9.03293 80.0733 11.593 81.111 12.0407C83.4386 12.9991 124.733 30.0091 133.657 34.2885C142.854 38.699 145.307 46.6223 145.307 50.6087C145.307 68.6562 142.204 85.5231 136.083 100.741C131.139 113.058 124.133 124.43 115.369 134.36C98.46 153.524 81.5463 160.318 81.3831 160.378C79.3617 161.078 77.2349 161.42 75.0975 161.388ZM71.1199 151.466C72.5863 151.797 75.9623 152.293 78.1628 151.485C80.9582 150.458 95.1146 143.065 108.343 128.073C126.621 107.358 135.895 81.3176 135.909 50.6753C135.876 50.0545 135.438 45.6267 129.616 42.8347C120.865 38.6381 77.9431 20.9626 77.5106 20.7844L77.392 20.7338C76.4925 20.3542 73.6298 19.5546 71.6565 20.596L71.2615 20.7815C70.783 20.9794 23.3654 40.5931 18.3083 42.7152C14.7707 44.1996 13.5103 47.8772 13.5103 50.8238C13.5103 51.0392 13.5048 51.3524 13.4969 51.7572C13.0928 72.7239 17.9104 124.316 71.1199 151.466Z" fill="#7272DE"/>
</g>
<path d="M69.5008 16.6548C69.5008 16.6548 21.853 36.3745 16.7479 38.518C11.6427 40.6614 9.09019 45.8057 9.09019 50.95C9.09019 56.0943 5.26135 123.22 69.5008 155.675C69.5008 155.675 75.3312 157.301 79.7546 155.675C84.178 154.05 140.334 126.614 140.334 50.7356C140.334 50.7356 140.334 43.0192 131.4 38.7323C122.466 34.4454 79.2722 16.6548 79.2722 16.6548C79.2722 16.6548 73.9678 14.297 69.5008 16.6548Z" fill="#EEEEFB"/>
<path opacity="0.1" d="M74.6906 31.5833V137.426C74.6906 137.426 26.5262 113.965 26.9524 52.2865L74.6906 31.5833Z" fill="#7272DE"/>
<ellipse cx="140.832" cy="37.1484" rx="31.33" ry="31.395" fill="white"/>
<g filter="url(#filter1_d_631_7)">
<path fill-rule="evenodd" clip-rule="evenodd" d="M155.496 30.2883L141.488 48.7266C140.911 49.4857 140.019 49.9344 139.068 49.9405H139.046C138.105 49.9405 137.216 49.5041 136.633 48.7604L129.175 39.2125C128.132 37.8788 128.365 35.9458 129.699 34.901C131.033 33.8531 132.959 34.0866 134.005 35.4265L139.013 41.8369L150.617 26.5668C151.641 25.2178 153.567 24.9535 154.917 25.983C156.263 27.0124 156.524 28.9392 155.496 30.2883Z" fill="#7272DE"/>
</g>
<path d="M74.745 112.729C76.38 112.729 78.0513 111.875 78.0513 109.499V107.159C88.2244 105.934 94.5826 99.8446 94.5826 91.0446C94.5826 83.4328 90.0774 78.7914 80.9216 76.972L74.0547 75.5239C69.4405 74.5957 67.3332 72.8134 67.3332 70.0286C67.3332 66.9096 70.0581 64.4218 74.3454 64.4218C77.9786 64.4218 80.5946 65.61 83.6828 68.6176C85.4995 70.2142 86.9891 70.9197 88.9511 70.9197C91.24 70.9197 93.1293 69.2117 93.1293 66.7611C93.1293 64.6818 92.0393 62.491 90.0047 60.5231C87.3161 57.8497 82.9925 56.1417 78.1603 55.5105V52.8371C78.1603 50.4607 76.489 49.6067 74.854 49.6067C73.2191 49.6067 71.5478 50.4236 71.5478 52.8371V55.4362C61.738 56.3645 55.4161 62.3797 55.4161 70.9569C55.4161 78.5315 59.8487 83.3585 68.6412 85.215L75.4717 86.7374C80.7036 87.8885 82.7745 89.5222 82.7745 92.307C82.7745 95.8716 80.0133 98.2108 74.8904 98.2108C71.2208 98.2108 67.6602 96.6513 64.4266 93.6437C62.3556 91.8614 61.0477 91.3416 59.449 91.3416C56.8694 91.3416 54.7985 92.9754 54.7985 95.8716C54.7985 98.0994 55.9611 100.253 57.9957 102.147C61.0113 105.006 65.8799 106.751 71.4024 107.234V109.499C71.4024 111.875 73.1101 112.729 74.745 112.729Z" fill="#7272DE"/>
<defs>
<filter id="filter0_d_631_7" x="0.0737305" y="8.61426" width="149.234" height="158.776" filterUnits="userSpaceOnUse" color-interpolation-filters="sRGB">
<feFlood flood-opacity="0" result="BackgroundImageFix"/>
<feColorMatrix in="SourceAlpha" type="matrix" values="0 0 0 0 0 0 0 0 0 0 0 0 0 0 0 0 0 0 127 0" result="hardAlpha"/>
<feOffset dy="2"/>
<feGaussianBlur stdDeviation="2"/>
<feColorMatrix type="matrix" values="0 0 0 0 0 0 0 0 0 0 0 0 0 0 0 0 0 0 0.16 0"/>
<feBlend mode="normal" in2="BackgroundImageFix" result="effect1_dropShadow_631_7"/>
<feBlend mode="normal" in="SourceGraphic" in2="effect1_dropShadow_631_7" result="shape"/>
</filter>
<filter id="filter1_d_631_7" x="101.523" y="-1.22998" width="81.6007" height="81.7533" filterUnits="userSpaceOnUse" color-interpolation-filters="sRGB">
<feFlood flood-opacity="0" result="BackgroundImageFix"/>
<feColorMatrix in="SourceAlpha" type="matrix" values="0 0 0 0 0 0 0 0 0 0 0 0 0 0 0 0 0 0 127 0" result="hardAlpha"/>
<feOffset dy="2"/>
<feGaussianBlur stdDeviation="2"/>
<feColorMatrix type="matrix" values="0 0 0 0 0 0 0 0 0 0 0 0 0 0 0 0 0 0 0.16 0"/>
<feBlend mode="normal" in2="BackgroundImageFix" result="effect1_dropShadow_631_7"/>
<feBlend mode="normal" in="SourceGraphic" in2="effect1_dropShadow_631_7" result="shape"/>
</filter>
</defs>
</svg>
