<svg width="125" height="117" viewBox="0 0 125 117" fill="none" xmlns="http://www.w3.org/2000/svg">
<g clip-path="url(#clip0_646_270)">
<g filter="url(#filter0_d_646_270)">
<path d="M52.151 112.395C50.5401 112.39 48.9362 112.181 47.3769 111.772L47.0696 111.686L46.7846 111.541C36.4776 106.322 27.7822 99.4284 20.9398 91.0511C15.2757 84.0757 10.8597 76.1566 7.89048 67.6482C4.33964 57.4621 2.63136 46.7141 2.84714 35.9173C2.8515 35.6907 2.85518 35.5157 2.85518 35.3952C2.85518 30.1468 5.73965 25.5417 10.2037 23.6631C13.6203 22.2253 44.641 9.35674 46.8824 8.42694C51.1033 6.2908 55.6065 8.07371 56.3271 8.3855C57.9435 9.05296 86.6201 20.8992 92.8174 23.8795C99.2042 26.9511 100.908 32.4691 100.908 35.2454C100.908 47.8142 98.7528 59.5607 94.5021 70.1589C91.0687 78.7368 86.2035 86.6566 80.1174 93.5722C68.375 106.919 56.6294 111.65 56.516 111.692C55.1123 112.179 53.6354 112.418 52.151 112.395ZM49.3888 105.485C50.4072 105.716 52.7516 106.061 54.2797 105.498C56.221 104.783 66.0518 99.6346 75.2382 89.1937C87.9313 74.7672 94.3715 56.6319 94.3813 35.2917C94.3583 34.8594 94.0542 31.7758 90.0111 29.8313C83.934 26.9087 54.1272 14.599 53.8268 14.4749L53.7444 14.4396C53.1198 14.1753 51.1318 13.6184 49.7615 14.3437L49.4872 14.4728C49.1549 14.6107 16.226 28.2702 12.7141 29.7481C10.2574 30.7819 9.38215 33.3431 9.38215 35.3952C9.38215 35.5452 9.37833 35.7633 9.37285 36.0452C9.09222 50.647 12.4378 86.5772 49.3888 105.485Z" fill="#7272DE"/>
</g>
<path d="M48.2644 11.5989C48.2644 11.5989 15.1757 25.3323 11.6305 26.8251C8.08521 28.3178 6.31263 31.9005 6.31263 35.4831C6.31263 39.0657 3.65372 85.814 48.2644 108.417C48.2644 108.417 52.3133 109.549 55.3851 108.417C58.4569 107.285 97.4542 88.1777 97.4542 35.3338C97.4542 35.3338 97.4542 29.9599 91.25 26.9743C85.0458 23.9888 55.0501 11.5989 55.0501 11.5989C55.0501 11.5989 51.3665 9.9569 48.2644 11.5989Z" fill="#EEEEFB"/>
<path opacity="0.1" d="M51.8684 21.9955V95.7074C51.8684 95.7074 18.4209 79.3685 18.7169 36.4138L51.8684 21.9955Z" fill="#7272DE"/>
<path d="M97.8 47.7356C109.816 47.7356 119.557 37.9466 119.557 25.8712C119.557 13.7958 109.816 4.00684 97.8 4.00684C85.784 4.00684 76.0431 13.7958 76.0431 25.8712C76.0431 37.9466 85.784 47.7356 97.8 47.7356Z" fill="white"/>
<g filter="url(#filter1_d_646_270)">
<path fill-rule="evenodd" clip-rule="evenodd" d="M107.983 21.0937L98.2556 33.9347C97.8549 34.4633 97.2354 34.7758 96.575 34.7801H96.5598C95.9063 34.7801 95.2889 34.4761 94.8841 33.9582L89.7049 27.3088C88.9806 26.3799 89.1424 25.0337 90.0688 24.3061C90.9952 23.5763 92.3327 23.7389 93.0591 24.6721L96.5368 29.1365L104.595 18.5019C105.306 17.5625 106.644 17.3784 107.581 18.0954C108.516 18.8123 108.697 20.1541 107.983 21.0937Z" fill="#7272DE"/>
</g>
<path d="M51.9063 78.5077C53.0417 78.5077 54.2023 77.9129 54.2023 76.2582V74.6285C61.267 73.7754 65.6824 69.5346 65.6824 63.406C65.6824 58.1049 62.5538 54.8725 56.1956 53.6055L51.4269 52.597C48.2226 51.9505 46.7592 50.7093 46.7592 48.7699C46.7592 46.5977 48.6515 44.8651 51.6288 44.8651C54.1519 44.8651 55.9685 45.6926 58.1131 47.7872C59.3747 48.8991 60.4092 49.3905 61.7717 49.3905C63.3612 49.3905 64.6732 48.201 64.6732 46.4943C64.6732 45.0462 63.9162 43.5205 62.5033 42.15C60.6362 40.2881 57.6337 39.0986 54.278 38.6591V36.7972C54.278 35.1422 53.1174 34.5475 51.982 34.5475C50.8466 34.5475 49.686 35.1164 49.686 36.7972V38.6073C42.8737 39.2538 38.4835 43.443 38.4835 49.4164C38.4835 54.6915 41.5616 58.0532 47.6675 59.3461L52.411 60.4064C56.0442 61.208 57.4823 62.3458 57.4823 64.2852C57.4823 66.7677 55.5648 68.3968 52.0073 68.3968C49.4589 68.3968 46.9863 67.3107 44.7407 65.2161C43.3025 63.9749 42.3943 63.6129 41.2841 63.6129C39.4927 63.6129 38.0546 64.7507 38.0546 66.7677C38.0546 68.3192 38.8619 69.819 40.2748 71.1381C42.369 73.1291 45.75 74.3444 49.585 74.6808V76.2582C49.585 77.9129 50.771 78.5077 51.9063 78.5077Z" fill="#7272DE"/>
</g>
<defs>
<filter id="filter0_d_646_270" x="-1.17102" y="5.39209" width="106.079" height="113.005" filterUnits="userSpaceOnUse" color-interpolation-filters="sRGB">
<feFlood flood-opacity="0" result="BackgroundImageFix"/>
<feColorMatrix in="SourceAlpha" type="matrix" values="0 0 0 0 0 0 0 0 0 0 0 0 0 0 0 0 0 0 127 0" result="hardAlpha"/>
<feOffset dy="2"/>
<feGaussianBlur stdDeviation="2"/>
<feColorMatrix type="matrix" values="0 0 0 0 0 0 0 0 0 0 0 0 0 0 0 0 0 0 0.16 0"/>
<feBlend mode="normal" in2="BackgroundImageFix" result="effect1_dropShadow_646_270"/>
<feBlend mode="normal" in="SourceGraphic" in2="effect1_dropShadow_646_270" result="shape"/>
</filter>
<filter id="filter1_d_646_270" x="85.2522" y="15.6578" width="27.1676" height="25.1222" filterUnits="userSpaceOnUse" color-interpolation-filters="sRGB">
<feFlood flood-opacity="0" result="BackgroundImageFix"/>
<feColorMatrix in="SourceAlpha" type="matrix" values="0 0 0 0 0 0 0 0 0 0 0 0 0 0 0 0 0 0 127 0" result="hardAlpha"/>
<feOffset dy="2"/>
<feGaussianBlur stdDeviation="2"/>
<feColorMatrix type="matrix" values="0 0 0 0 0 0 0 0 0 0 0 0 0 0 0 0 0 0 0.16 0"/>
<feBlend mode="normal" in2="BackgroundImageFix" result="effect1_dropShadow_646_270"/>
<feBlend mode="normal" in="SourceGraphic" in2="effect1_dropShadow_646_270" result="shape"/>
</filter>
<clipPath id="clip0_646_270">
<rect width="125" height="117" fill="white"/>
</clipPath>
</defs>
</svg>
