<svg width="219" height="179" viewBox="0 0 219 179" fill="none" xmlns="http://www.w3.org/2000/svg">
<path d="M138.654 176.248L133.984 174.269L130.78 150.706H88.1201L84.6477 174.172L80.4698 176.275C80.2699 176.376 80.1096 176.541 80.0149 176.745C79.9202 176.949 79.8966 177.179 79.9479 177.398C79.9993 177.617 80.1226 177.812 80.2978 177.951C80.4731 178.091 80.69 178.167 80.9135 178.167H138.269C138.498 178.167 138.72 178.087 138.897 177.941C139.074 177.795 139.196 177.592 139.241 177.366C139.287 177.14 139.253 176.905 139.146 176.701C139.039 176.497 138.865 176.337 138.654 176.248Z" fill="#AEAEAE"/>
<path d="M214.449 153.094H4.89002C3.79052 153.091 2.73689 152.65 1.9603 151.866C1.18371 151.083 0.747566 150.021 0.747559 148.915V119.172H218.592V148.915C218.592 150.021 218.156 151.083 217.379 151.866C216.602 152.65 215.549 153.091 214.449 153.094Z" fill="#CCCCCC"/>
<path d="M218.811 133.229H0.55603V5.96634C0.557564 4.63079 1.08537 3.35038 2.02367 2.40601C2.96196 1.46165 4.23412 0.930452 5.56105 0.928955H213.806C215.132 0.930451 216.405 1.46165 217.343 2.40601C218.281 3.35037 218.809 4.63078 218.811 5.96634V133.229Z" fill="#3F3D56"/>
<path d="M205.775 123.992H13.5917C12.5687 123.991 11.5879 123.582 10.8646 122.854C10.1412 122.126 9.7343 121.139 9.73315 120.109V14.0491C9.73429 13.0195 10.1412 12.0323 10.8645 11.3042C11.5879 10.5761 12.5687 10.1666 13.5917 10.1654H205.775C206.798 10.1666 207.779 10.5761 208.502 11.3042C209.226 12.0323 209.633 13.0195 209.634 14.0491V120.109C209.633 121.139 209.226 122.126 208.502 122.854C207.779 123.582 206.798 123.991 205.775 123.992Z" fill="white"/>
<path d="M43.2418 43.7686H32.681V44.7346H43.2418V43.7686Z" fill="#3BDC9C"/>
<path d="M51.2423 47.3116H32.681V48.2781H51.2423V47.3116Z" fill="#E6E6E6"/>
<path d="M51.2423 50.5328H32.681V51.4991H51.2423V50.5328Z" fill="#E6E6E6"/>
<path d="M30.7609 43.7686H22.7604V51.8212H30.7609V43.7686Z" fill="#3BDC9C"/>
<path d="M43.2418 64.3829H32.681V65.3494H43.2418V64.3829Z" fill="#3BDC9C"/>
<path d="M51.2423 67.9265H32.681V68.8925H51.2423V67.9265Z" fill="#E6E6E6"/>
<path d="M51.2423 71.4694H32.681V72.4354H51.2423V71.4694Z" fill="#E6E6E6"/>
<path d="M30.7609 64.3829H22.7604V72.4353H30.7609V64.3829Z" fill="#3BDC9C"/>
<path d="M43.2418 85.3196H32.681V86.2861H43.2418V85.3196Z" fill="#3BDC9C"/>
<path d="M51.2423 88.5408H32.681V89.8292H51.2423V88.5408Z" fill="#E6E6E6"/>
<path d="M51.2423 92.0839H32.681V93.0501H51.2423V92.0839Z" fill="#E6E6E6"/>
<path d="M30.7609 85.3196H22.7604V93.0501H30.7609V85.3196Z" fill="#3BDC9C"/>
<path d="M100.89 68.8132H100.587V69.726H100.89V68.8132Z" fill="#E5E5E5"/>
<path d="M100.89 89.178H100.587V87.2328H100.89V89.178ZM100.89 85.2876H100.587V83.3424H100.89V85.2876ZM100.89 81.3972H100.587V79.452H100.89V81.3972ZM100.89 77.5068H100.587V75.5615H100.89V77.5068ZM100.89 73.6164H100.587V71.6711H100.89V73.6164Z" fill="#E5E5E5"/>
<path d="M100.89 91.1234H100.587V92.0364H100.89V91.1234Z" fill="#E5E5E5"/>
<path d="M133.997 68.8132H133.695V69.726H133.997V68.8132Z" fill="#E5E5E5"/>
<path d="M133.997 89.178H133.695V87.2328H133.997V89.178ZM133.997 85.2876H133.695V83.3424H133.997V85.2876ZM133.997 81.3972H133.695V79.452H133.997V81.3972ZM133.997 77.5068H133.695V75.5615H133.997V77.5068ZM133.997 73.6164H133.695V71.6711H133.997V73.6164Z" fill="#E5E5E5"/>
<path d="M133.997 91.1234H133.695V92.0364H133.997V91.1234Z" fill="#E5E5E5"/>
<path d="M150.698 50.9532H150.395V51.8662H150.698V50.9532Z" fill="#E5E5E5"/>
<path d="M150.698 89.2536H150.395V87.3843H150.698V89.2536ZM150.698 85.5149H150.395V83.6455H150.698V85.5149ZM150.698 81.7762H150.395V79.9068H150.698V81.7762ZM150.698 78.0375H150.395V76.1681H150.698V78.0375ZM150.698 74.2988H150.395V72.4293H150.698V74.2988ZM150.698 70.56H150.395V68.6906H150.698V70.56ZM150.698 66.8213H150.395V64.9519H150.698V66.8213ZM150.698 63.0826H150.395V61.2132H150.698V63.0826ZM150.698 59.3438H150.395V57.4744H150.698V59.3438ZM150.698 55.6051H150.395V53.7357H150.698V55.6051Z" fill="#E5E5E5"/>
<path d="M150.698 91.1234H150.395V92.0364H150.698V91.1234Z" fill="#E5E5E5"/>
<path d="M167.231 43.6497H166.929V44.5629H167.231V43.6497Z" fill="#E5E5E5"/>
<path d="M167.231 89.261H166.929V87.3986H167.231V89.261ZM167.231 85.5362H166.929V83.6737H167.231V85.5362ZM167.231 81.8113H166.929V79.9488H167.231V81.8113ZM167.231 78.0864H166.929V76.224H167.231V78.0864ZM167.231 74.3616H166.929V72.4991H167.231V74.3616ZM167.231 70.6367H166.929V68.7742H167.231V70.6367ZM167.231 66.9118H166.929V65.0494H167.231V66.9118ZM167.231 63.187H166.929V61.3245H167.231V63.187ZM167.231 59.4621H166.929V57.5996H167.231V59.4621ZM167.231 55.7372H166.929V53.8748H167.231V55.7372ZM167.231 52.0124H166.929V50.1499H167.231V52.0124ZM167.231 48.2875H166.929V46.425H167.231V48.2875Z" fill="#E5E5E5"/>
<path d="M167.231 91.1234H166.929V92.0364H167.231V91.1234Z" fill="#E5E5E5"/>
<path d="M117.519 56.5834H117.216V57.4963H117.519V56.5834Z" fill="#E5E5E5"/>
<path d="M117.519 89.3535H117.216V87.5837H117.519V89.3535ZM117.519 85.8138H117.216V84.044H117.519V85.8138ZM117.519 82.2741H117.216V80.5043H117.519V82.2741ZM117.519 78.7344H117.216V76.9646H117.519V78.7344ZM117.519 75.1947H117.216V73.4249H117.519V75.1947ZM117.519 71.655H117.216V69.8852H117.519V71.655ZM117.519 68.1153H117.216V66.3455H117.519V68.1153ZM117.519 64.5756H117.216V62.8058H117.519V64.5756ZM117.519 61.0359H117.216V59.2661H117.519V61.0359Z" fill="#E5E5E5"/>
<path d="M117.519 91.1234H117.216V92.0364H117.519V91.1234Z" fill="#E5E5E5"/>
<path d="M184.001 92.4602H83.9041C83.821 92.4602 83.7413 92.4269 83.6826 92.3678C83.6238 92.3087 83.5908 92.2285 83.5908 92.1449V43.8563C83.5908 43.7727 83.6238 43.6925 83.6826 43.6334C83.7413 43.5742 83.821 43.541 83.9041 43.541C83.9872 43.541 84.0668 43.5742 84.1256 43.6334C84.1843 43.6925 84.2173 43.7727 84.2173 43.8563V91.8296H184.001C184.084 91.8296 184.164 91.8628 184.222 91.9219C184.281 91.981 184.314 92.0612 184.314 92.1449C184.314 92.2285 184.281 92.3087 184.222 92.3678C184.164 92.4269 184.084 92.4602 184.001 92.4602V92.4602Z" fill="#3F3D56"/>
<path d="M133.983 69.2372L117.341 56.6908L100.926 69.0658L100.55 68.5611L117.341 55.9029L133.904 68.3897L150.363 50.2605L150.429 50.2335L167.032 43.5005L167.266 44.0858L150.729 50.7917L133.983 69.2372Z" fill="#3F3D56"/>
<path d="M100.738 70.7049C101.776 70.7049 102.618 69.8579 102.618 68.813C102.618 67.7682 101.776 66.9211 100.738 66.9211C99.7004 66.9211 98.8589 67.7682 98.8589 68.813C98.8589 69.8579 99.7004 70.7049 100.738 70.7049Z" fill="#3BDC9C"/>
<path d="M117.341 58.4086C118.379 58.4086 119.22 57.5616 119.22 56.5167C119.22 55.4719 118.379 54.6249 117.341 54.6249C116.303 54.6249 115.461 55.4719 115.461 56.5167C115.461 57.5616 116.303 58.4086 117.341 58.4086Z" fill="#3BDC9C"/>
<path d="M133.944 70.7049C134.982 70.7049 135.823 69.8579 135.823 68.813C135.823 67.7682 134.982 66.9211 133.944 66.9211C132.905 66.9211 132.064 67.7682 132.064 68.813C132.064 69.8579 132.905 70.7049 133.944 70.7049Z" fill="#3BDC9C"/>
<path d="M150.546 52.4179C151.584 52.4179 152.426 51.5709 152.426 50.5261C152.426 49.4814 151.584 48.6344 150.546 48.6344C149.508 48.6344 148.667 49.4814 148.667 50.5261C148.667 51.5709 149.508 52.4179 150.546 52.4179Z" fill="#3BDC9C"/>
<path d="M167.149 45.4814C168.187 45.4814 169.028 44.6345 169.028 43.5897C169.028 42.545 168.187 41.6981 167.149 41.6981C166.111 41.6981 165.269 42.545 165.269 43.5897C165.269 44.6345 166.111 45.4814 167.149 45.4814Z" fill="#3BDC9C"/>
<path d="M64.7704 10.1654H64.1295V123.992H64.7704V10.1654Z" fill="#E5E5E5"/>
</svg>
