<svg width="122" height="100" viewBox="0 0 122 100" fill="none" xmlns="http://www.w3.org/2000/svg">
<g clip-path="url(#clip0_646_230)">
<path d="M77.2411 98.4625L74.6395 97.3569L72.8547 84.1932H49.0898L47.1554 97.3027L44.828 98.4776C44.7166 98.534 44.6273 98.6262 44.5746 98.7402C44.5218 98.8541 44.5086 98.9826 44.5372 99.105C44.5659 99.2273 44.6345 99.3363 44.7321 99.4139C44.8298 99.4921 44.9506 99.5346 45.0751 99.5346H77.0266C77.1542 99.5346 77.2779 99.4899 77.3765 99.4083C77.4751 99.3268 77.543 99.2134 77.5681 99.0871C77.5937 98.9608 77.5748 98.8296 77.5152 98.7156C77.4556 98.6016 77.3586 98.5122 77.2411 98.4625Z" fill="#AEAEAE"/>
<path d="M119.465 85.5274H2.72418C2.11167 85.5257 1.52472 85.2793 1.09209 84.8413C0.659474 84.4039 0.416508 83.8106 0.416504 83.1927V66.5765H121.773V83.1927C121.773 83.8106 121.53 84.4039 121.097 84.8413C120.664 85.2793 120.078 85.5257 119.465 85.5274Z" fill="#CCCCCC"/>
<path d="M121.895 74.4296H0.309692V3.3331C0.310547 2.58699 0.604576 1.87167 1.12728 1.34409C1.64998 0.816516 2.35867 0.519757 3.09788 0.518921H119.106C119.845 0.519757 120.554 0.816516 121.077 1.34409C121.599 1.87167 121.894 2.58698 121.895 3.3331V74.4296Z" fill="#3F3D56"/>
<path d="M114.633 69.2692H7.57163C7.00174 69.2687 6.45536 69.0402 6.05243 68.6335C5.64944 68.2268 5.42276 67.6754 5.42212 67.1V7.84862C5.42275 7.27342 5.64943 6.72192 6.05237 6.31516C6.45536 5.9084 7.00174 5.67963 7.57163 5.67896H114.633C115.203 5.67963 115.749 5.9084 116.152 6.31516C116.555 6.72192 116.782 7.27342 116.782 7.84862V67.1C116.782 67.6754 116.555 68.2268 116.152 68.6335C115.749 69.0402 115.203 69.2687 114.633 69.2692Z" fill="white"/>
<path d="M24.089 24.4518H18.2058V24.9914H24.089V24.4518Z" fill="#3BDC9C"/>
<path d="M28.5459 26.431H18.2058V26.971H28.5459V26.431Z" fill="#E6E6E6"/>
<path d="M28.5459 28.2306H18.2058V28.7704H28.5459V28.2306Z" fill="#E6E6E6"/>
<path d="M17.1362 24.4518H12.6793V28.9504H17.1362V24.4518Z" fill="#3BDC9C"/>
<path d="M24.089 35.9681H18.2058V36.5081H24.089V35.9681Z" fill="#3BDC9C"/>
<path d="M28.5459 37.9478H18.2058V38.4874H28.5459V37.9478Z" fill="#E6E6E6"/>
<path d="M28.5459 39.927H18.2058V40.4667H28.5459V39.927Z" fill="#E6E6E6"/>
<path d="M17.1362 35.9681H12.6793V40.4667H17.1362V35.9681Z" fill="#3BDC9C"/>
<path d="M24.089 47.6646H18.2058V48.2045H24.089V47.6646Z" fill="#3BDC9C"/>
<path d="M28.5459 49.4641H18.2058V50.1839H28.5459V49.4641Z" fill="#E6E6E6"/>
<path d="M28.5459 51.4435H18.2058V51.9833H28.5459V51.4435Z" fill="#E6E6E6"/>
<path d="M17.1362 47.6646H12.6793V51.9833H17.1362V47.6646Z" fill="#3BDC9C"/>
<path d="M56.2036 38.4431H56.0348V38.9531H56.2036V38.4431Z" fill="#E5E5E5"/>
<path d="M56.2036 49.8201H56.0348V48.7334H56.2036V49.8201ZM56.2036 47.6467H56.0348V46.56H56.2036V47.6467ZM56.2036 45.4733H56.0348V44.3865H56.2036V45.4733ZM56.2036 43.2998H56.0348V42.2131H56.2036V43.2998ZM56.2036 41.1264H56.0348V40.0397H56.2036V41.1264Z" fill="#E5E5E5"/>
<path d="M56.2036 50.907H56.0348V51.417H56.2036V50.907Z" fill="#E5E5E5"/>
<path d="M74.6467 38.4431H74.4785V38.9531H74.6467V38.4431Z" fill="#E5E5E5"/>
<path d="M74.6467 49.8201H74.4785V48.7334H74.6467V49.8201ZM74.6467 47.6467H74.4785V46.56H74.6467V47.6467ZM74.6467 45.4733H74.4785V44.3865H74.6467V45.4733ZM74.6467 43.2998H74.4785V42.2131H74.6467V43.2998ZM74.6467 41.1264H74.4785V40.0397H74.6467V41.1264Z" fill="#E5E5E5"/>
<path d="M74.6467 50.907H74.4785V51.417H74.6467V50.907Z" fill="#E5E5E5"/>
<path d="M83.9505 28.4655H83.7817V28.9755H83.9505V28.4655Z" fill="#E5E5E5"/>
<path d="M83.9505 49.8623H83.7817V48.818H83.9505V49.8623ZM83.9505 47.7736H83.7817V46.7293H83.9505V47.7736ZM83.9505 45.685H83.7817V44.6406H83.9505V45.685ZM83.9505 43.5963H83.7817V42.552H83.9505V43.5963ZM83.9505 41.5077H83.7817V40.4632H83.9505V41.5077ZM83.9505 39.4189H83.7817V38.3746H83.9505V39.4189ZM83.9505 37.3303H83.7817V36.2859H83.9505V37.3303ZM83.9505 35.2416H83.7817V34.1973H83.9505V35.2416ZM83.9505 33.1529H83.7817V32.1086H83.9505V33.1529ZM83.9505 31.0643H83.7817V30.0199H83.9505V31.0643Z" fill="#E5E5E5"/>
<path d="M83.9505 50.907H83.7817V51.417H83.9505V50.907Z" fill="#E5E5E5"/>
<path d="M93.1607 24.3853H92.9924V24.8954H93.1607V24.3853Z" fill="#E5E5E5"/>
<path d="M93.1607 49.8665H92.9924V48.8261H93.1607V49.8665ZM93.1607 47.7856H92.9924V46.7451H93.1607V47.7856ZM93.1607 45.7047H92.9924V44.6642H93.1607V45.7047ZM93.1607 43.6237H92.9924V42.5833H93.1607V43.6237ZM93.1607 41.5428H92.9924V40.5023H93.1607V41.5428ZM93.1607 39.4619H92.9924V38.4214H93.1607V39.4619ZM93.1607 37.3809H92.9924V36.3405H93.1607V37.3809ZM93.1607 35.3H92.9924V34.2595H93.1607V35.3ZM93.1607 33.2191H92.9924V32.1786H93.1607V33.2191ZM93.1607 31.1381H92.9924V30.0977H93.1607V31.1381ZM93.1607 29.0572H92.9924V28.0167H93.1607V29.0572ZM93.1607 26.9763H92.9924V25.9358H93.1607V26.9763Z" fill="#E5E5E5"/>
<path d="M93.1607 50.907H92.9924V51.417H93.1607V50.907Z" fill="#E5E5E5"/>
<path d="M65.4673 31.6108H65.2985V32.1208H65.4673V31.6108Z" fill="#E5E5E5"/>
<path d="M65.4673 49.9181H65.2985V48.9294H65.4673V49.9181ZM65.4673 47.9406H65.2985V46.9519H65.4673V47.9406ZM65.4673 45.9631H65.2985V44.9744H65.4673V45.9631ZM65.4673 43.9856H65.2985V42.9969H65.4673V43.9856ZM65.4673 42.0082H65.2985V41.0194H65.4673V42.0082ZM65.4673 40.0307H65.2985V39.042H65.4673V40.0307ZM65.4673 38.0532H65.2985V37.0645H65.4673V38.0532ZM65.4673 36.0757H65.2985V35.087H65.4673V36.0757ZM65.4673 34.0982H65.2985V33.1095H65.4673V34.0982Z" fill="#E5E5E5"/>
<path d="M65.4673 50.907H65.2985V51.417H65.4673V50.907Z" fill="#E5E5E5"/>
<path d="M102.503 51.6537H46.7411C46.6948 51.6537 46.6504 51.6351 46.6177 51.6021C46.5849 51.5691 46.5665 51.5243 46.5665 51.4776V24.5007C46.5665 24.454 46.5849 24.4092 46.6177 24.3762C46.6504 24.3431 46.6948 24.3246 46.7411 24.3246C46.7874 24.3246 46.8317 24.3431 46.8645 24.3762C46.8972 24.4092 46.9155 24.454 46.9155 24.5007V51.3015H102.503C102.549 51.3015 102.594 51.32 102.626 51.353C102.659 51.386 102.677 51.4308 102.677 51.4776C102.677 51.5243 102.659 51.5691 102.626 51.6021C102.594 51.6351 102.549 51.6537 102.503 51.6537Z" fill="#3F3D56"/>
<path d="M74.6389 38.68L65.3681 31.6709L56.2236 38.5843L56.0142 38.3023L65.3681 31.2307L74.5949 38.2066L83.7639 28.0785L83.8006 28.0635L93.0498 24.302L93.1802 24.629L83.9678 28.3753L74.6389 38.68Z" fill="#3F3D56"/>
<path d="M56.1188 39.5C56.6971 39.5 57.1661 39.0268 57.1661 38.443C57.1661 37.8594 56.6971 37.3861 56.1188 37.3861C55.5408 37.3861 55.072 37.8594 55.072 38.443C55.072 39.0268 55.5408 39.5 56.1188 39.5Z" fill="#3BDC9C"/>
<path d="M65.3681 32.6305C65.9464 32.6305 66.4149 32.1573 66.4149 31.5736C66.4149 30.9899 65.9464 30.5167 65.3681 30.5167C64.7899 30.5167 64.3208 30.9899 64.3208 31.5736C64.3208 32.1573 64.7899 32.6305 65.3681 32.6305Z" fill="#3BDC9C"/>
<path d="M74.6173 39.5C75.1955 39.5 75.664 39.0268 75.664 38.443C75.664 37.8594 75.1955 37.3861 74.6173 37.3861C74.0385 37.3861 73.5699 37.8594 73.5699 38.443C73.5699 39.0268 74.0385 39.5 74.6173 39.5Z" fill="#3BDC9C"/>
<path d="M83.8658 29.2837C84.4441 29.2837 84.9131 28.8105 84.9131 28.2269C84.9131 27.6432 84.4441 27.17 83.8658 27.17C83.2876 27.17 82.8191 27.6432 82.8191 28.2269C82.8191 28.8105 83.2876 29.2837 83.8658 29.2837Z" fill="#3BDC9C"/>
<path d="M93.1149 25.4086C93.6932 25.4086 94.1617 24.9355 94.1617 24.3518C94.1617 23.7682 93.6932 23.295 93.1149 23.295C92.5367 23.295 92.0676 23.7682 92.0676 24.3518C92.0676 24.9355 92.5367 25.4086 93.1149 25.4086Z" fill="#3BDC9C"/>
<path d="M36.0821 5.67896H35.7251V69.2692H36.0821V5.67896Z" fill="#E5E5E5"/>
</g>
<defs>
<clipPath id="clip0_646_230">
<rect width="122" height="100" fill="white"/>
</clipPath>
</defs>
</svg>
