<svg width="35" height="34" viewBox="0 0 35 34" fill="none" xmlns="http://www.w3.org/2000/svg">
<path d="M17.6306 31.04C18.3472 31.04 18.9843 30.6466 18.9843 29.7024V28.4435C23.2681 27.987 25.9436 25.5006 25.9436 21.8812C25.9436 18.7652 24.0485 16.8768 20.115 16.027L16.8822 15.3031C14.8596 14.8625 13.8723 13.9497 13.8723 12.6121C13.8723 11.007 15.2737 9.84242 17.4714 9.84242C19.255 9.84242 20.4972 10.4404 21.8827 11.9669C22.5834 12.6908 23.1248 12.9583 23.8574 12.9583C24.7492 12.9583 25.434 12.3446 25.434 11.4319C25.434 10.5506 24.9084 9.59064 24.0166 8.72511C22.8382 7.62351 21.0705 6.89966 19.0798 6.64782V5.34168C19.0798 4.4132 18.4428 4.01978 17.7102 4.01978C16.9936 4.01978 16.3566 4.39746 16.3566 5.34168V6.60063C12.232 6.97833 9.60436 9.41753 9.60436 12.9111C9.60436 15.9641 11.4995 17.9942 15.1304 18.7967L18.3632 19.5363C20.7201 20.0871 21.6916 20.9055 21.6916 22.2903C21.6916 24.0843 20.2742 25.2174 17.7421 25.2174C15.847 25.2174 14.2704 24.5092 12.8372 22.9827C12.025 22.1801 11.5791 22.007 10.9739 22.007C10.0025 22.007 9.2699 22.6208 9.2699 23.6751C9.2699 24.6036 9.81139 25.5636 10.7828 26.3977C12.0568 27.5464 14.0475 28.2546 16.2611 28.4592V29.7024C16.2611 30.6466 16.8981 31.04 17.6306 31.04Z" fill="#3BDC9C"/>
</svg>
