<svg width="59" height="58" viewBox="0 0 59 58" fill="none" xmlns="http://www.w3.org/2000/svg">
<path d="M29.7203 52.9507C30.9283 52.9507 32.0022 52.2796 32.0022 50.6689V48.5213C39.2235 47.7427 43.7336 43.5012 43.7336 37.3268C43.7336 32.0114 40.539 28.79 33.9082 27.3403L28.4586 26.1054C25.0492 25.3538 23.3848 23.7967 23.3848 21.5149C23.3848 18.7767 25.7472 16.7901 29.4519 16.7901C32.4585 16.7901 34.5525 17.8102 36.888 20.4142C38.0692 21.6491 38.9819 22.1055 40.2168 22.1055C41.7202 22.1055 42.8745 21.0585 42.8745 19.5015C42.8745 17.9982 41.9886 16.3606 40.4853 14.8841C38.4987 13.0049 35.5189 11.7701 32.1632 11.3405V9.11237C32.1632 7.52849 31.0894 6.85736 29.8545 6.85736C28.6465 6.85736 27.5727 7.50165 27.5727 9.11237V11.26C20.6198 11.9043 16.1903 16.0653 16.1903 22.025C16.1903 27.2329 19.3849 30.696 25.5056 32.0651L30.9552 33.3268C34.9283 34.2664 36.5659 35.6624 36.5659 38.0248C36.5659 41.0851 34.1766 43.018 29.9082 43.018C26.7136 43.018 24.0559 41.8099 21.6399 39.2059C20.2708 37.8368 19.5191 37.5415 18.499 37.5415C16.8614 37.5415 15.6265 38.5885 15.6265 40.3871C15.6265 41.971 16.5393 43.6086 18.1768 45.0314C20.3245 46.9911 23.6801 48.1991 27.4116 48.5481V50.6689C27.4116 52.2796 28.4854 52.9507 29.7203 52.9507Z" fill="#3BDC9C"/>
</svg>
