<svg width="59" height="58" viewBox="0 0 59 58" fill="none" xmlns="http://www.w3.org/2000/svg">
<path fill-rule="evenodd" clip-rule="evenodd" d="M22.0834 26.5833C27.4146 26.5833 31.7501 22.2478 31.7501 16.9167C31.7501 11.5855 27.4146 7.25 22.0834 7.25C16.7522 7.25 12.4167 11.5855 12.4167 16.9167C12.4167 22.2478 16.7522 26.5833 22.0834 26.5833ZM41.4167 31.4167C45.4139 31.4167 48.6667 28.1638 48.6667 24.1667C48.6667 20.1695 45.4139 16.9167 41.4167 16.9167C37.4196 16.9167 34.1667 20.1695 34.1667 24.1667C34.1667 28.1638 37.4196 31.4167 41.4167 31.4167ZM53.5001 45.9167C53.5001 47.2507 52.4198 48.3333 51.0834 48.3333H39.0001C39.0001 49.6673 37.9198 50.75 36.5834 50.75H7.58341C6.247 50.75 5.16675 49.6673 5.16675 48.3333C5.16675 39.005 12.7575 31.4167 22.0834 31.4167C26.7403 31.4167 30.9598 33.3089 34.0217 36.3612C36.1218 34.7372 38.7077 33.8333 41.4167 33.8333C48.0795 33.8333 53.5001 39.2539 53.5001 45.9167Z" fill="#F3A447"/>
</svg>
