<svg width="35" height="34" viewBox="0 0 35 34" fill="none" xmlns="http://www.w3.org/2000/svg">
<path fill-rule="evenodd" clip-rule="evenodd" d="M13.1004 15.5833C16.2629 15.5833 18.8348 13.0418 18.8348 9.91669C18.8348 6.7915 16.2629 4.25 13.1004 4.25C9.93779 4.25 7.36588 6.7915 7.36588 9.91669C7.36588 13.0418 9.93779 15.5833 13.1004 15.5833ZM24.5693 18.4167C26.9405 18.4167 28.8701 16.5098 28.8701 14.1667C28.8701 11.8235 26.9405 9.91669 24.5693 9.91669C22.1981 9.91669 20.2684 11.8235 20.2684 14.1667C20.2684 16.5098 22.1981 18.4167 24.5693 18.4167ZM31.7374 26.9167C31.7374 27.6987 31.0965 28.3333 30.3038 28.3333H23.1357C23.1357 29.1153 22.4948 29.75 21.7021 29.75H4.49868C3.70589 29.75 3.06506 29.1153 3.06506 28.3333C3.06506 22.865 7.56805 18.4167 13.1004 18.4167C15.8629 18.4167 18.366 19.5259 20.1824 21.3152C21.4282 20.3632 22.9622 19.8333 24.5693 19.8333C28.5218 19.8333 31.7374 23.0109 31.7374 26.9167Z" fill="#F3A447"/>
</svg>
