<svg width="35" height="35" viewBox="0 0 35 35" fill="none" xmlns="http://www.w3.org/2000/svg">
<path fill-rule="evenodd" clip-rule="evenodd" d="M14.5834 5.83334C16.1941 5.83334 17.5 4.5275 17.5 2.91666C17.5 1.30584 16.1941 0 14.5834 0C12.9725 0 11.6666 1.30584 11.6666 2.91666C11.6666 4.5275 12.9725 5.83334 14.5834 5.83334ZM2.1875 5.83334C3.39562 5.83334 4.375 4.85396 4.375 3.64584C4.375 2.43771 3.39562 1.45834 2.1875 1.45834C0.979379 1.45834 0 2.43771 0 3.64584C0 4.85396 0.979379 5.83334 2.1875 5.83334ZM8.75 8.75C8.75 9.55542 8.09707 10.2084 7.29165 10.2084C6.48622 10.2084 5.83334 9.55542 5.83334 8.75C5.83334 7.94458 6.48622 7.29165 7.29165 7.29165C8.09707 7.29165 8.75 7.94458 8.75 8.75ZM30.6227 17.4608C30.6239 17.4381 30.625 17.4155 30.625 17.3916C30.625 16.9061 30.3154 16.4706 29.8492 16.3163L11.7017 10.2661C11.2945 10.1312 10.8454 10.2367 10.5414 10.5406C10.2363 10.8446 10.1297 11.2938 10.268 11.701L16.3168 29.8494C16.4779 30.3371 16.9475 30.6536 17.4613 30.6229C17.9739 30.5924 18.4016 30.2203 18.5024 29.7167L19.8819 22.9337L25.4346 28.2019C26.311 29.0334 27.6956 28.997 28.5271 28.1206C29.3586 27.2441 29.3222 25.8596 28.4458 25.028L23.0062 19.8671L29.7165 18.5032C30.2201 18.4011 30.5921 17.9735 30.6227 17.4608ZM8.75 17.5C8.75 19.1108 7.44414 20.4166 5.83334 20.4166C4.2225 20.4166 2.91666 19.1108 2.91666 17.5C2.91666 15.8892 4.2225 14.5834 5.83334 14.5834C7.44414 14.5834 8.75 15.8892 8.75 17.5Z" fill="#7272DE"/>
</svg>
