<svg width="35" height="34" viewBox="0 0 35 34" fill="none" xmlns="http://www.w3.org/2000/svg">
<g clip-path="url(#clip0_646_190)">
<mask id="mask0_646_190" style="mask-type:luminance" maskUnits="userSpaceOnUse" x="0" y="0" width="35" height="34">
<path d="M34.8023 0H0.395508V34H34.8023V0Z" fill="white"/>
</mask>
<g mask="url(#mask0_646_190)">
<path d="M29.7599 4.98276C26.3984 1.66092 22.3446 0 17.5989 0C12.7812 0 8.72757 1.66092 5.43788 4.98276C2.0763 8.30462 0.395508 12.3103 0.395508 17C0.395508 21.7607 2.0763 25.7664 5.43788 29.0172C8.72757 32.3391 12.7812 34 17.5989 34C22.3446 34 26.3984 32.3391 29.7599 29.0172C33.1215 25.7664 34.8023 21.7607 34.8023 17C34.8023 12.3103 33.1215 8.30462 29.7599 4.98276ZM21.4818 12.1238C21.4818 10.685 22.2008 9.96552 23.6389 9.96552C24.1962 9.96552 24.6906 10.1876 25.122 10.6317C25.5534 11.0402 25.7692 11.5376 25.7692 12.1238C25.7692 13.545 25.0591 14.2555 23.6389 14.2555C22.2008 14.2555 21.4818 13.545 21.4818 12.1238ZM13.0689 10.6317C13.5003 11.0402 13.716 11.5376 13.716 12.1238C13.716 13.545 12.9969 14.2555 11.5588 14.2555C10.1207 14.2555 9.40165 13.545 9.40165 12.1238C9.40165 10.685 10.1207 9.96552 11.5588 9.96552C12.1521 9.96552 12.6554 10.1876 13.0689 10.6317ZM10.7499 25.2602C8.86241 23.3772 7.91859 21.1124 7.91859 18.4655C10.4893 18.0569 13.4733 17.8083 16.8709 17.7195C20.1426 17.6662 23.603 17.9148 27.2522 18.4655C27.2522 21.1124 26.3264 23.3772 24.4748 25.2602C22.5334 27.1254 20.2414 28.058 17.5989 28.058C14.8845 28.058 12.6015 27.1254 10.7499 25.2602Z" fill="#00A1FF"/>
</g>
</g>
<defs>
<clipPath id="clip0_646_190">
<rect width="35" height="34" fill="white"/>
</clipPath>
</defs>
</svg>
