<svg width="59" height="58" viewBox="0 0 59 58" fill="none" xmlns="http://www.w3.org/2000/svg">
<g clip-path="url(#clip0_610_556)">
<path d="M50.1666 8.5C44.5 2.83333 37.6666 0 29.6666 0C21.5454 0 14.7121 2.83333 9.16663 8.5C3.49996 14.1667 0.666626 21 0.666626 29C0.666626 37.1212 3.49996 43.9545 9.16663 49.5C14.7121 55.1667 21.5454 58 29.6666 58C37.6666 58 44.5 55.1667 50.1666 49.5C55.8333 43.9545 58.6666 37.1212 58.6666 29C58.6666 21 55.8333 14.1667 50.1666 8.5ZM36.2121 20.6818C36.2121 18.2273 37.4242 17 39.8484 17C40.7878 17 41.6212 17.3788 42.3484 18.1364C43.0757 18.8333 43.4394 19.6818 43.4394 20.6818C43.4394 23.1061 42.2424 24.3182 39.8484 24.3182C37.4242 24.3182 36.2121 23.1061 36.2121 20.6818ZM22.0303 18.1364C22.7575 18.8333 23.1212 19.6818 23.1212 20.6818C23.1212 23.1061 21.909 24.3182 19.4848 24.3182C17.0606 24.3182 15.8484 23.1061 15.8484 20.6818C15.8484 18.2273 17.0606 17 19.4848 17C20.4848 17 21.3333 17.3788 22.0303 18.1364ZM18.1212 43.0909C14.9394 39.8788 13.3484 36.0152 13.3484 31.5C17.6818 30.803 22.7121 30.3788 28.4394 30.2273C33.9545 30.1364 39.7878 30.5606 45.9394 31.5C45.9394 36.0152 44.3787 39.8788 41.2575 43.0909C37.9848 46.2727 34.1212 47.8636 29.6666 47.8636C25.0909 47.8636 21.2424 46.2727 18.1212 43.0909Z" fill="#00A1FF"/>
</g>
<defs>
<clipPath id="clip0_610_556">
<rect width="58" height="58" fill="white" transform="translate(0.666626)"/>
</clipPath>
</defs>
</svg>
