<svg width="86" height="150" viewBox="0 0 86 150" fill="none" xmlns="http://www.w3.org/2000/svg">
<path d="M59.3577 146.292H56.4843L55.1173 129.853L59.3583 129.854L59.3577 146.292Z" fill="#9E616A"/>
<path d="M61.1759 149.945H49.6644V149.773C49.6646 148.365 50.1366 147.015 50.9769 146.02C51.8171 145.025 52.9566 144.466 54.1449 144.466H61.1759V149.945Z" fill="#2F2E41"/>
<path d="M38.1525 146.292H34.8684L33.3062 129.853L38.153 129.854L38.1525 146.292Z" fill="#9E616A"/>
<path d="M39.3646 149.945H27.8534V149.773C27.8535 148.365 28.3256 147.015 29.1658 146.02C30.0061 145.025 31.1456 144.466 32.3339 144.466H39.3648L39.3646 149.945Z" fill="#2F2E41"/>
<path d="M29.0651 55.883L24.2525 54.9645L22.6977 58.0556L5.96574 63.3232L6.01104 63.6086C5.53787 62.9982 4.91664 62.5951 4.24138 62.4598C3.56611 62.3244 2.87357 62.4647 2.26855 62.8592C1.66352 63.2531 1.17895 63.8799 0.888164 64.6451C0.597378 65.4098 0.516205 66.2708 0.656933 67.0976C0.797668 67.9244 1.15264 68.672 1.66813 69.2275C2.18362 69.783 2.83157 70.1159 3.51391 70.1762C4.19627 70.236 4.87589 70.0201 5.44991 69.5604C6.02394 69.1006 6.4611 68.4226 6.69531 67.6287L26.9581 62.4092L29.0651 55.883Z" fill="#9E616A"/>
<path d="M78.5498 52.4982C78.1436 52.4986 77.741 52.5865 77.3641 52.7574L77.4623 52.5622L55.6656 39.7432L52.6938 45.2092L75.3556 56.6547C75.4379 57.3533 75.6953 58.01 76.0973 58.5465C76.4992 59.0829 77.028 59.4762 77.6215 59.6794C78.2143 59.8827 78.8462 59.8872 79.4415 59.6925C80.0374 59.4978 80.5705 59.1121 80.9785 58.5815C81.3859 58.0509 81.6507 57.3979 81.7409 56.7005C81.8312 56.0032 81.7428 55.2911 81.4866 54.6494C81.2304 54.0077 80.8169 53.4636 80.296 53.0821C79.7751 52.7006 79.1689 52.4979 78.5498 52.4982Z" fill="#9E616A"/>
<path d="M44.1489 18.0075C44.9915 11.8605 41.4656 6.06877 36.2738 5.07125C31.0819 4.07373 26.19 8.24822 25.3474 14.3952C24.5049 20.5422 28.0307 26.334 33.2226 27.3315C38.4145 28.329 43.3064 24.1545 44.1489 18.0075Z" fill="#2F2E41"/>
<path d="M34.518 27.5661C37.8641 27.5661 40.5766 24.295 40.5766 20.26C40.5766 16.2248 37.8641 12.9537 34.518 12.9537C31.1719 12.9537 28.4594 16.2248 28.4594 20.26C28.4594 24.295 31.1719 27.5661 34.518 27.5661Z" fill="#A0616A"/>
<path d="M34.5179 17.2156C38.1986 17.2156 41.1824 15.1712 41.1824 12.6493C41.1824 10.1273 38.1986 8.08289 34.5179 8.08289C30.8372 8.08289 27.8534 10.1273 27.8534 12.6493C27.8534 15.1712 30.8372 17.2156 34.5179 17.2156Z" fill="#2F2E41"/>
<path d="M35.4268 9.90935C37.6017 9.90935 39.3648 7.72868 39.3648 5.03861C39.3648 2.34856 37.6017 0.167847 35.4268 0.167847C33.2518 0.167847 31.4886 2.34856 31.4886 5.03861C31.4886 7.72868 33.2518 9.90935 35.4268 9.90935Z" fill="#2F2E41"/>
<path d="M31.8317 38.0769L32.1789 34.0601C32.2655 33.0574 32.7577 32.1294 33.5978 31.5749C35.6202 30.2401 39.4843 28.1453 41.0924 30.3638L54.4 57.7718C54.4 57.7718 62.6726 61.3122 62.3799 74.8305L61.9846 140.174L52.6042 141.412L46.9081 90.4665L41.7616 143.248L30.8409 142.837L31.8234 108.065L37.0308 74.3573L36.9809 63.1726L34.6875 58.6585C34.6875 58.6585 30.4863 56.6269 30.3688 50.8855L30.2769 42.8151L31.8317 38.0769Z" fill="#ECF5FF"/>
<path d="M39.9707 32.3883C38.9595 31.3894 39.9373 29.7709 41.2787 30.2414C48.482 32.768 60.4251 37.4969 59.265 40.7222C57.6141 45.3119 54.5188 46.7612 54.5188 46.7612L42.5501 41.2053L39.9707 32.3883Z" fill="#ECF5FF"/>
<path d="M33.4782 38.5668L31.8999 36.699C31.8999 36.699 19.3109 56.3028 23.1178 58.4932C26.9247 60.6836 30.1214 59.5336 30.1214 59.5336L36.3355 46.8891L33.4782 38.5668Z" fill="#ECF5FF"/>
<path d="M8.67725 99.7999C9.0254 101.893 11.076 103.252 13.1402 102.758L81.4884 86.3823C83.3566 85.9347 84.5606 84.1188 84.2453 82.2243L79.1402 51.5309C78.7925 49.4376 76.7419 48.0785 74.6773 48.5731L6.32963 64.9487C4.46136 65.3963 3.25738 67.2115 3.57248 69.106L8.67725 99.7999Z" fill="white"/>
<path d="M84.8424 82.6567C85.162 84.5573 83.9525 86.3799 82.077 86.8238L12.1649 103.381C10.1058 103.868 8.06342 102.513 7.7124 100.427L2.36965 68.6738C2.04992 66.7738 3.25936 64.9512 5.13496 64.5067L75.0469 47.9503C77.106 47.4626 79.1487 48.8173 79.4994 50.9034L84.8424 82.6567ZM8.54245 98.9512C8.89347 101.038 10.9359 102.392 12.9949 101.904L80.8327 85.839C82.7082 85.3951 83.9177 83.5726 83.5981 81.672L78.6693 52.3795C78.3186 50.2933 76.2759 48.9387 74.2168 49.4263L6.3791 65.4915C4.5035 65.936 3.29405 67.7585 3.61378 69.6585L8.54245 98.9512Z" fill="#E4E4E4"/>
<path d="M73.289 60.2601L12.0079 74.7432L12.3269 76.6353L73.608 62.1518L73.289 60.2601Z" fill="#E4E4E4"/>
<path d="M74.5309 67.6262L13.2498 82.1091L13.5687 84.0006L74.8499 69.5177L74.5309 67.6262Z" fill="#E4E4E4"/>
<path d="M75.7801 75.0342L14.4989 89.5177L14.8178 91.4092L76.0991 76.9263L75.7801 75.0342Z" fill="#E4E4E4"/>
<path d="M43.7409 71.5335L41.6563 72C41.504 72.0335 41.346 71.9982 41.2169 71.9018C41.0877 71.8055 40.998 71.6555 40.9675 71.4853L39.9819 65.9561C39.9517 65.7853 39.9831 65.6085 40.0693 65.464C40.1554 65.3195 40.2893 65.2189 40.4415 65.1847L42.5261 64.7189C42.6783 64.6847 42.8364 64.7201 42.9656 64.8164C43.0947 64.9128 43.1844 65.0628 43.215 65.2335L44.2005 70.7622C44.2307 70.9329 44.1993 71.1097 44.1131 71.2543C44.027 71.3994 43.8931 71.4994 43.7409 71.5335Z" fill="#00A1FF"/>
<path d="M67.9754 73.8896L65.8906 74.4329C65.7388 74.4725 65.5808 74.4317 65.4515 74.3189C65.3222 74.2061 65.2325 74.0317 65.202 73.8323L64.2164 67.3823C64.1865 67.1829 64.2176 66.9768 64.3036 66.8079C64.3902 66.639 64.5238 66.5219 64.6763 66.4823L66.7604 65.9384C66.9129 65.8988 67.0709 65.9402 67.2002 66.0524C67.3295 66.1652 67.4191 66.3402 67.4496 66.539L68.4353 72.9896C68.4652 73.1884 68.4341 73.3951 68.3474 73.5634C68.2614 73.7323 68.1279 73.8494 67.9754 73.8896Z" fill="#00A1FF"/>
</svg>
