<svg width="209" height="189" viewBox="0 0 209 189" fill="none" xmlns="http://www.w3.org/2000/svg">
<path d="M32.4838 152.861H10.2115C9.70908 152.86 9.21247 152.968 8.75641 153.179C8.30036 153.389 7.89588 153.696 7.57127 154.079C6.74978 153.928 5.9042 153.974 5.10393 154.213C4.30366 154.451 3.57153 154.876 2.96763 155.452C2.36372 156.027 1.90527 156.737 1.6299 157.524C1.35453 158.311 1.2701 159.151 1.38353 159.977C1.49696 160.803 1.80501 161.59 2.28242 162.273C2.75982 162.957 3.39295 163.518 4.12985 163.91C4.86674 164.303 5.68638 164.515 6.52149 164.53C7.35661 164.545 8.18338 164.362 8.93395 163.997L11.5359 185.796C11.7547 186.506 12.1958 187.127 12.7945 187.568C13.3932 188.009 14.1179 188.247 14.8622 188.247H29.3428C30.0871 188.247 30.8117 188.009 31.4103 187.568C32.0089 187.127 32.45 186.506 32.6688 185.796L35.8102 157.354C35.9703 156.835 36.0061 156.285 35.9145 155.75C35.823 155.214 35.6068 154.707 35.2832 154.27C34.9597 153.833 34.5378 153.478 34.0516 153.233C33.5654 152.989 33.0284 152.861 32.4838 152.861ZM6.63161 163.025C5.63086 163.025 4.67109 162.629 3.96345 161.923C3.25581 161.217 2.85826 160.259 2.85826 159.261C2.85826 158.262 3.25581 157.305 3.96345 156.599C4.67109 155.893 5.63086 155.496 6.63161 155.496C6.70052 155.496 6.76464 155.513 6.83281 155.516C6.68273 156.122 6.70095 156.758 6.8855 157.354L8.47923 162.523C7.91777 162.848 7.28086 163.021 6.63161 163.025Z" fill="white"/>
<path d="M91.5865 145.277L76.9194 89.9505L75.6708 85.254C75.3943 84.214 75.7151 83.1065 76.5045 82.3753C76.7096 82.1853 76.9411 82.0259 77.1917 81.902L102.822 69.2341C103.694 68.8032 104.657 68.5907 105.63 68.6149L141.843 69.5146C142.744 69.537 143.627 69.7618 144.429 70.1724L162.931 79.6483C164.907 80.6607 166.163 82.6822 166.195 84.9029L166.267 89.9505L167.389 167.281C167.396 167.721 167.451 168.16 167.553 168.588L170.207 179.693C171.108 183.465 168.249 187.088 164.371 187.088H95.4901C91.6717 187.088 88.8247 183.568 89.6225 179.834L94.2871 158.002C94.4843 157.079 94.461 156.123 94.2193 155.211L91.5865 145.277Z" fill="#F3A447"/>
<path d="M183.701 177.948C184.409 181.652 181.573 185.088 177.802 185.088H168.433C165.438 185.088 162.902 182.879 162.49 179.913L157.241 142.099C157.195 141.767 157.177 141.432 157.186 141.098L158.752 87.9508L158.878 83.7352C158.931 81.9527 160.258 80.4666 162.023 80.2126C162.97 80.0763 163.939 80.3082 164.69 80.9007C167.227 82.901 169.135 84.9878 170.76 87.9508C173.41 92.5521 175.617 99.1221 175.136 107.933C175.124 108.149 175.122 108.362 175.131 108.579C175.208 110.398 175.564 119.582 175.14 125.915C174.848 130.268 179.414 155.521 183.701 177.948Z" fill="#F3A447"/>
<path d="M91.663 144.724L91.5864 145.277L85.7853 187.088H60.6422C62.6583 163.397 65.0282 133.779 64.7099 129.033C64.2384 121.981 64.7335 111.377 64.7335 111.377C64.1322 101.655 66.8029 94.6442 69.768 89.9508C71.2598 87.5649 73.0974 85.4125 75.2211 83.5636C75.6922 83.1512 76.1883 82.7681 76.7067 82.4167L80.8806 83.7695L81.9713 89.9508L91.663 144.724Z" fill="#F3A447"/>
<path d="M94.5612 38.2217C94.5612 43.5645 96.1493 48.7873 99.1246 53.2296C102.1 57.672 106.329 61.1344 111.276 63.179C116.224 65.2236 121.668 65.7585 126.921 64.7162C132.173 63.6739 136.998 61.1011 140.785 57.3232C144.572 53.5453 147.151 48.7319 148.195 43.4918C149.24 38.2517 148.704 32.8202 146.654 27.8841C144.605 22.948 141.135 18.7291 136.682 15.7608C132.229 12.7925 126.994 11.2082 121.638 11.2082C114.475 11.1904 107.598 14.0122 102.52 19.053C97.442 24.0938 94.5791 30.9406 94.5612 38.0871C94.5611 38.132 94.5611 38.1769 94.5612 38.2217Z" fill="#FFC9C9"/>
<path d="M208.126 182.78C208.126 184.322 207.512 185.8 206.42 186.891C205.327 187.981 203.845 188.593 202.299 188.593H46.4172C44.8716 188.593 43.3894 187.981 42.2965 186.891C41.2037 185.8 40.5897 184.322 40.5897 182.78C40.5897 181.238 41.2037 179.759 42.2965 178.669C43.3894 177.579 44.8716 176.966 46.4172 176.966H48.1473C48.0483 176.62 47.9968 176.262 47.9942 175.901V96.5057C47.9942 95.1666 48.5274 93.8824 49.4765 92.9355C50.4257 91.9886 51.713 91.4566 53.0552 91.4566H195.661C197.003 91.4566 198.291 91.9885 199.24 92.9354C200.189 93.8823 200.722 95.1665 200.722 96.5056V175.901C200.722 176.262 200.671 176.62 200.569 176.966H202.299C203.064 176.966 203.822 177.116 204.529 177.409C205.236 177.701 205.879 178.129 206.42 178.669C206.961 179.209 207.39 179.85 207.683 180.555C207.976 181.26 208.126 182.016 208.126 182.78Z" fill="#B1650C"/>
<path d="M152.31 15.7824C150.127 14.1009 148.353 11.9498 147.119 9.48923C146.678 8.55402 146.071 7.70669 145.326 6.98874L140.206 10.917L143.335 5.48014C135.321 0.647623 119.673 3.21424 119.673 3.21424C103.395 -5.43359 97.4172 5.36135 95.3334 12.2073C94.5079 14.6847 93.0522 16.9061 91.1086 18.6543C87.0932 22.4741 93.4165 29.904 93.4165 29.904V30.4291L94.9258 40.6564C94.9258 40.6564 96.4352 33.8803 100.418 29.1187C102.929 26.1166 107.017 24.3317 108.915 24.3686C133.414 24.8456 138.052 25.8134 138.052 25.8134C138.052 25.8134 142.2 28.0364 144.032 28.9702C149.951 31.9879 148.507 42.9151 148.507 42.9151L152.931 23.5212C153.952 18.8201 153.385 16.6631 152.31 15.7824Z" fill="#2F2E41"/>
</svg>
