<svg width="130" height="118" viewBox="0 0 130 118" fill="none" xmlns="http://www.w3.org/2000/svg">
<g clip-path="url(#clip0_646_201)">
<path d="M20.2052 95.437H6.3516C6.03909 95.4364 5.73019 95.5038 5.44652 95.6356C5.16285 95.7667 4.91126 95.9583 4.70935 96.1975C4.19837 96.1032 3.67242 96.1319 3.17464 96.2811C2.67686 96.4297 2.22147 96.6951 1.84584 97.0547C1.4702 97.4137 1.18504 97.857 1.01376 98.3483C0.842478 98.8397 0.789962 99.3641 0.860516 99.8798C0.931071 100.396 1.12268 100.887 1.41963 101.313C1.71658 101.74 2.11039 102.091 2.56875 102.335C3.02711 102.581 3.53693 102.713 4.05638 102.722C4.57583 102.732 5.09009 102.618 5.55695 102.39L7.17539 116C7.31148 116.443 7.58585 116.831 7.95825 117.106C8.33065 117.381 8.78142 117.53 9.24438 117.53H18.2515C18.7144 117.53 19.1651 117.381 19.5375 117.106C19.9098 116.831 20.1842 116.443 20.3203 116L22.2742 98.2422C22.3738 97.9181 22.3961 97.5748 22.3391 97.2407C22.2822 96.9061 22.1477 96.5896 21.9464 96.3167C21.7452 96.0439 21.4828 95.8222 21.1804 95.6693C20.8779 95.5169 20.5439 95.437 20.2052 95.437ZM4.12487 101.783C3.5024 101.783 2.90541 101.536 2.46525 101.095C2.02509 100.654 1.77781 100.056 1.77781 99.4328C1.77781 98.8091 2.02509 98.2116 2.46525 97.7708C2.90541 97.33 3.5024 97.0822 4.12487 97.0822C4.16773 97.0822 4.20762 97.0928 4.25002 97.0946C4.15667 97.473 4.168 97.8701 4.28279 98.2422L5.27411 101.469C4.92488 101.672 4.52871 101.78 4.12487 101.783Z" fill="white"/>
<path d="M56.9678 90.702L47.8447 56.1596L47.0681 53.2274C46.8961 52.578 47.0956 51.8866 47.5866 51.4301C47.7142 51.3115 47.8582 51.2119 48.0141 51.1346L63.9564 43.2255C64.4988 42.9565 65.0978 42.8238 65.703 42.8389L88.2278 43.4006C88.7882 43.4146 89.3375 43.555 89.8363 43.8113L101.345 49.7275C102.574 50.3596 103.355 51.6217 103.375 53.0082L103.42 56.1596L104.118 104.44C104.122 104.715 104.156 104.989 104.22 105.256L105.87 112.189C106.431 114.544 104.653 116.806 102.24 116.806H59.3959C57.0208 116.806 55.2499 114.609 55.7462 112.277L58.6476 98.6468C58.7702 98.0705 58.7558 97.4736 58.6054 96.9042L56.9678 90.702Z" fill="#F3A447"/>
<path d="M114.264 111.1C114.704 113.412 112.94 115.558 110.595 115.558H104.767C102.904 115.558 101.327 114.178 101.07 112.327L97.8054 88.7179C97.7768 88.5106 97.7656 88.3015 97.7712 88.0929L98.7452 54.9111L98.8236 52.2791C98.8566 51.1662 99.682 50.2384 100.78 50.0798C101.369 49.9947 101.972 50.1395 102.439 50.5094C104.017 51.7583 105.204 53.0611 106.214 54.9111C107.863 57.7838 109.235 61.8857 108.936 67.3867C108.929 67.5216 108.928 67.6546 108.933 67.7901C108.981 68.9257 109.202 74.6596 108.939 78.6136C108.757 81.3313 111.597 97.0978 114.264 111.1Z" fill="#F3A447"/>
<path d="M57.0152 90.3568L56.9676 90.702L53.3592 116.806H37.72C38.974 102.015 40.4481 83.5234 40.2501 80.5603C39.9568 76.1575 40.2648 69.537 40.2648 69.537C39.8908 63.4671 41.552 59.09 43.3963 56.1598C44.3242 54.6702 45.4672 53.3263 46.7882 52.172C47.0812 51.9145 47.3898 51.6753 47.7122 51.4559L50.3084 52.3005L50.9869 56.1598L57.0152 90.3568Z" fill="#F3A447"/>
<path d="M58.8179 23.8633C58.8179 27.199 59.8057 30.4598 61.6564 33.2333C63.5071 36.0069 66.1376 38.1686 69.2147 39.4451C72.2924 40.7216 75.6786 41.0556 78.946 40.4048C82.2128 39.7541 85.214 38.1478 87.5696 35.7891C89.9251 33.4304 91.5293 30.4252 92.1787 27.1536C92.8287 23.882 92.4953 20.4909 91.2201 17.4091C89.9456 14.3273 87.7873 11.6933 85.0175 9.8401C82.2477 7.98687 78.9914 6.99773 75.6599 6.99773C71.2045 6.98662 66.9269 8.74838 63.7684 11.8955C60.6098 15.0427 58.8291 19.3174 58.8179 23.7793C58.8179 23.8073 58.8179 23.8353 58.8179 23.8633Z" fill="#FFC9C9"/>
<path d="M129.456 114.117C129.456 115.079 129.074 116.002 128.395 116.683C127.715 117.364 126.793 117.746 125.832 117.746H28.8718C27.9105 117.746 26.9885 117.364 26.3087 116.683C25.629 116.002 25.2471 115.079 25.2471 114.117C25.2471 113.154 25.629 112.23 26.3087 111.55C26.9885 110.869 27.9105 110.487 28.8718 110.487H29.948C29.8864 110.271 29.8544 110.047 29.8527 109.822V60.2522C29.8527 59.4162 30.1844 58.6144 30.7747 58.0232C31.3652 57.432 32.1659 57.0999 33.0007 57.0999H121.703C122.538 57.0999 123.339 57.4319 123.929 58.0231C124.519 58.6143 124.851 59.4161 124.851 60.2521V109.822C124.851 110.047 124.819 110.271 124.756 110.487H125.832C126.308 110.487 126.779 110.58 127.219 110.763C127.659 110.946 128.059 111.213 128.395 111.55C128.732 111.887 128.998 112.287 129.181 112.727C129.363 113.168 129.456 113.64 129.456 114.117Z" fill="#B1650C"/>
<path d="M94.7383 9.85356C93.3804 8.80374 92.277 7.46072 91.5094 5.92449C91.2351 5.34061 90.8576 4.81159 90.3942 4.36334L87.2095 6.81591L89.1557 3.42146C84.171 0.404338 74.4377 2.00678 74.4377 2.00678C64.3127 -3.3924 60.5944 3.3473 59.2983 7.62149C58.7848 9.16823 57.8794 10.5551 56.6704 11.6466C54.1728 14.0315 58.106 18.6702 58.106 18.6702V18.9981L59.0448 25.3834C59.0448 25.3834 59.9836 21.1528 62.461 18.1799C64.0228 16.3056 66.5656 15.1912 67.7462 15.2143C82.9848 15.5121 85.8697 16.1163 85.8697 16.1163C85.8697 16.1163 88.4498 17.5042 89.5893 18.0872C93.271 19.9713 92.3728 26.7936 92.3728 26.7936L95.1245 14.6852C95.7596 11.7501 95.4069 10.4034 94.7383 9.85356Z" fill="#2F2E41"/>
</g>
<defs>
<clipPath id="clip0_646_201">
<rect width="130" height="118" fill="white"/>
</clipPath>
</defs>
</svg>
